<svg width="58" height="61" viewBox="0 0 58 61" fill="none" xmlns="http://www.w3.org/2000/svg">
<path opacity="0.2" d="M36.5748 10.5958C34.4615 11.5708 32.5996 13.0616 31.1436 14.9446C29.6875 16.8276 28.6793 19.0485 28.2025 21.4233C27.8044 23.3839 27.7774 25.4078 28.1231 27.3793C28.4687 29.3509 29.1803 31.2316 30.2171 32.9139C31.2539 34.5963 32.5956 36.0474 34.1656 37.1843C35.7357 38.3213 37.5033 39.1218 39.3675 39.5403C42.4189 40.2188 45.5969 39.8453 48.4307 38.4752C51.2644 37.105 53.603 34.8112 55.1 31.9336C55.8105 30.5702 57.7767 31.0643 57.8231 32.6168C57.8847 34.7129 57.7056 36.8092 57.2895 38.8601C54.4533 52.8901 41.3598 61.851 28.043 58.8742C14.7262 55.8974 6.2321 42.1084 9.0654 28.0784C11.7334 14.8841 23.5364 6.05736 36.1659 7.68606C37.6275 7.87516 37.9204 9.97356 36.5719 10.5958H36.5748Z" fill="#8A2BE2"/>
<path fill-rule="evenodd" clip-rule="evenodd" d="M23.9975 18.3732C24.4743 15.9985 25.4825 13.7775 26.9386 11.8945C28.3946 10.0115 30.2565 8.52071 32.3698 7.54571C33.7183 6.92046 33.4254 4.82511 31.9638 4.63601C19.3343 3.00731 7.53131 11.834 4.86331 25.0283C2.03001 39.0583 10.5241 52.8443 23.8409 55.8242C37.1577 58.801 50.2512 49.8401 53.0874 35.8101C53.5033 33.7591 53.6825 31.6628 53.621 29.5667C53.5746 28.0143 51.6084 27.5202 50.8979 28.8835C49.4007 31.7623 47.0611 34.057 44.2261 35.4272C41.3912 36.7974 38.2119 37.1701 35.1596 36.4902C31.3951 35.6444 28.1043 33.2606 26.011 29.863C23.9177 26.4654 23.1935 22.3324 23.9975 18.3732ZM7.69951 25.6627C8.66053 20.8986 11.0385 16.5799 14.489 13.332C17.9395 10.0841 22.2834 8.07568 26.8917 7.59756C24.0236 10.1718 21.9791 13.6976 21.1613 17.7388C20.6841 20.0911 20.652 22.5193 21.0671 24.8846C21.4821 27.25 22.3361 29.5062 23.5802 31.5244C24.8243 33.5427 26.4342 35.2834 28.3181 36.6472C30.2019 38.0111 32.3226 38.9713 34.5593 39.4731C37.3665 40.1 40.2775 39.987 43.033 39.1441C45.7886 38.3011 48.3032 36.7545 50.3527 34.6419C50.3209 34.8202 50.287 34.9982 50.2512 35.1757C47.7485 47.5587 36.1949 55.4673 24.4441 52.8413C12.6962 50.2122 5.19971 38.0488 7.70241 25.6658L7.69951 25.6627Z" fill="#8A2BE2"/>
</svg>
