<svg width="51" height="50" viewBox="0 0 51 50" fill="none" xmlns="http://www.w3.org/2000/svg">
<path d="M25.5 16.0156C23.723 16.0156 21.986 16.5425 20.5085 17.5297C19.031 18.517 17.8795 19.9201 17.1995 21.5618C16.5195 23.2035 16.3416 25.0099 16.6882 26.7527C17.0349 28.4955 17.8906 30.0964 19.1471 31.3529C20.4035 32.6094 22.0044 33.4651 23.7472 33.8117C25.49 34.1584 27.2965 33.9805 28.9381 33.3005C30.5798 32.6205 31.983 31.4689 32.9702 29.9914C33.9574 28.514 34.4843 26.7769 34.4843 25C34.4812 22.6181 33.5337 20.3347 31.8495 18.6505C30.1652 16.9663 27.8818 16.0187 25.5 16.0156ZM25.5 31.6406C24.1866 31.6406 22.9027 31.2511 21.8106 30.5215C20.7186 29.7918 19.8674 28.7547 19.3648 27.5412C18.8622 26.3278 18.7307 24.9926 18.9869 23.7045C19.2432 22.4163 19.8756 21.2331 20.8043 20.3043C21.733 19.3756 22.9163 18.7432 24.2044 18.487C25.4926 18.2307 26.8278 18.3622 28.0412 18.8648C29.2546 19.3675 30.2918 20.2186 31.0214 21.3106C31.7511 22.4027 32.1406 23.6866 32.1406 25C32.1406 26.7612 31.441 28.4503 30.1956 29.6956C28.9502 30.941 27.2612 31.6406 25.5 31.6406ZM42.2968 25.5547C42.3086 25.1855 42.3086 24.8144 42.2968 24.4453L45.291 20.7031C45.4054 20.5599 45.4847 20.3917 45.5223 20.2123C45.56 20.0329 45.555 19.8471 45.5078 19.6699C45.0393 17.9044 44.3378 16.2092 43.4218 14.6289C43.3309 14.4685 43.2033 14.3318 43.0496 14.23C42.8958 14.1282 42.7202 14.0641 42.5371 14.0429L37.7617 13.5137C37.5104 13.2441 37.25 12.9837 36.9804 12.7324L36.4492 7.95506C36.428 7.77188 36.3639 7.59629 36.2621 7.44255C36.1603 7.28881 36.0236 7.16127 35.8632 7.07029C34.2849 6.15693 32.5924 5.45682 30.83 4.98826C30.6524 4.94185 30.4664 4.93782 30.2869 4.97649C30.1074 5.01517 29.9396 5.09547 29.7968 5.21092L26.0468 8.21287C25.6771 8.20115 25.3072 8.20115 24.9375 8.21287L21.2031 5.20896C21.0598 5.09452 20.8917 5.01528 20.7123 4.97763C20.5328 4.93998 20.3471 4.94496 20.1699 4.99217C18.4044 5.46063 16.7092 6.1621 15.1289 7.0781C14.9685 7.16908 14.8318 7.29662 14.73 7.45036C14.6282 7.6041 14.5641 7.7797 14.5429 7.96287L14.0214 12.7383C13.7519 12.9909 13.4915 13.2513 13.2402 13.5195L8.4609 14.0625C8.27773 14.0836 8.10213 14.1477 7.94839 14.2496C7.79466 14.3514 7.66711 14.488 7.57613 14.6484C6.66277 16.2268 5.96266 17.9193 5.4941 19.6816C5.44881 19.8571 5.44482 20.0406 5.48244 20.2178C5.52005 20.3951 5.59826 20.5612 5.7109 20.7031L8.71285 24.4531C8.70113 24.8228 8.70113 25.1928 8.71285 25.5625L5.70895 29.3066C5.5945 29.4499 5.51527 29.618 5.47761 29.7974C5.43996 29.9769 5.44494 30.1626 5.49215 30.3398C5.96143 32.1019 6.66288 33.7938 7.57809 35.3711C7.66907 35.5315 7.79661 35.6681 7.95035 35.7699C8.10408 35.8717 8.27968 35.9358 8.46285 35.957L13.2382 36.4863C13.4908 36.7558 13.7513 37.0163 14.0195 37.2676L14.5625 42.039C14.5836 42.2222 14.6477 42.3978 14.7495 42.5516C14.8514 42.7053 14.988 42.8328 15.1484 42.9238C16.7268 43.8372 18.4192 44.5373 20.1816 45.0058C20.3588 45.053 20.5446 45.058 20.724 45.0204C20.9034 44.9827 21.0716 44.9035 21.2148 44.789L24.9453 41.7969C25.3144 41.8086 25.6855 41.8086 26.0546 41.7969L29.8066 44.8008C30.0146 44.9667 30.2729 45.057 30.539 45.0566C30.6405 45.0563 30.7416 45.0431 30.8398 45.0176C32.6019 44.5483 34.2938 43.8468 35.8711 42.9316C36.0314 42.8406 36.1681 42.7131 36.2699 42.5594C36.3717 42.4056 36.4358 42.23 36.457 42.0469L36.9863 37.2715C37.2558 37.0202 37.5162 36.7597 37.7675 36.4902L42.5449 35.959C42.7281 35.9378 42.9037 35.8737 43.0574 35.7719C43.2111 35.6701 43.3387 35.5334 43.4297 35.373C44.3433 33.7948 45.0435 32.1023 45.5117 30.3398C45.5589 30.1626 45.5639 29.9769 45.5262 29.7974C45.4886 29.618 45.4093 29.4499 45.2949 29.3066L42.2968 25.5547ZM41.6914 33.6855L37.0742 34.1992C36.7857 34.2325 36.5198 34.3717 36.3281 34.5898C35.9421 35.0247 35.5305 35.4362 35.0957 35.8222C34.8775 36.0139 34.7383 36.2798 34.705 36.5683L34.1914 41.1836C33.1104 41.7601 31.9745 42.2272 30.8007 42.5781L27.1738 39.6758C26.9658 39.5098 26.7075 39.4196 26.4414 39.4199H26.3711C25.7908 39.4531 25.2091 39.4531 24.6289 39.4199C24.3391 39.4022 24.053 39.4927 23.8261 39.6738L20.2011 42.5781C19.0284 42.2253 17.8939 41.7561 16.8144 41.1777L16.3007 36.5644C16.2675 36.2759 16.1283 36.01 15.9101 35.8183C15.4753 35.4323 15.0637 35.0208 14.6777 34.5859C14.486 34.3678 14.2201 34.2286 13.9316 34.1953L9.31637 33.6816C8.74049 32.6037 8.27334 31.4712 7.92184 30.3008L10.8242 26.6738C11.0053 26.4469 11.0958 26.1609 11.0781 25.8711C11.0449 25.2908 11.0449 24.7091 11.0781 24.1289C11.0958 23.8391 11.0053 23.553 10.8242 23.3262L7.92184 19.7012C8.27467 18.5284 8.7438 17.3939 9.32223 16.3144L13.9355 15.8008C14.224 15.7675 14.4899 15.6283 14.6816 15.4101C15.0676 14.9753 15.4792 14.5637 15.914 14.1777C16.1322 13.986 16.2714 13.7201 16.3047 13.4316L16.8183 8.81639C17.8962 8.24051 19.0287 7.77336 20.1992 7.42185L23.8261 10.3242C24.053 10.5054 24.3391 10.5958 24.6289 10.5781C25.2091 10.5449 25.7908 10.5449 26.3711 10.5781C26.6609 10.5958 26.9469 10.5054 27.1738 10.3242L30.7988 7.42185C31.9715 7.77469 33.1061 8.24381 34.1855 8.82224L34.6992 13.4394C34.7324 13.7279 34.8716 13.9938 35.0898 14.1855C35.5247 14.5716 35.9362 14.9831 36.3222 15.4179C36.5139 15.6361 36.7798 15.7753 37.0683 15.8086L41.6836 16.3222C42.2592 17.3989 42.7263 18.5301 43.0781 19.6992L40.1757 23.3262C39.9946 23.553 39.9041 23.8391 39.9218 24.1289C39.955 24.7091 39.955 25.2908 39.9218 25.8711C39.9041 26.1609 39.9946 26.4469 40.1757 26.6738L43.0781 30.2988C42.7265 31.4714 42.2587 32.6059 41.6816 33.6855H41.6914Z" fill="#545454"/>
</svg>
