<svg width="63" height="50" viewBox="0 0 63 50" fill="none" xmlns="http://www.w3.org/2000/svg">
<path d="M30.1269 13.2129C30.8203 12.5977 31.0937 11.6309 30.7324 10.7715C30.5078 10.2539 30.2636 9.74609 29.9902 9.25781L29.6874 8.73047C29.3945 8.24219 29.0722 7.76367 28.7304 7.30469C28.1738 6.5625 27.1972 6.31836 26.3183 6.61133L23.5644 7.51953C22.5195 6.66016 21.3183 5.95703 20.0292 5.47852L19.4335 2.64648C19.248 1.73828 18.5449 1.01563 17.6269 0.908203C16.9824 0.820313 16.3281 0.78125 15.664 0.78125H15.5956C14.9316 0.78125 14.2773 0.820312 13.6328 0.898437C12.7148 1.00586 12.0117 1.73828 11.8261 2.63672L11.2304 5.47852C9.93158 5.9668 8.74018 6.66016 7.69525 7.51953L4.93158 6.62109C4.05268 6.32813 3.07611 6.57227 2.51947 7.31445C2.17768 7.77344 1.85541 8.25195 1.55268 8.74023L1.25971 9.25781C0.98627 9.74609 0.742129 10.2539 0.51752 10.7813C0.156191 11.6309 0.429629 12.5977 1.12299 13.2227L3.29096 15.1562C3.18354 15.8105 3.12494 16.4941 3.12494 17.1875C3.12494 17.8809 3.18354 18.5645 3.29096 19.2285L1.12299 21.1621C0.429629 21.7773 0.156191 22.7441 0.51752 23.6035C0.742129 24.1211 0.98627 24.6289 1.25971 25.127L1.55268 25.6348C1.84564 26.1328 2.16791 26.6016 2.51947 27.0605C3.07611 27.8027 4.05268 28.0469 4.93158 27.7539L7.68549 26.8457C8.73041 27.7051 9.93158 28.4082 11.2206 28.8867L11.8163 31.7285C12.0019 32.6367 12.705 33.3594 13.623 33.4668C14.2773 33.5449 14.9413 33.584 15.6152 33.584C16.289 33.584 16.9531 33.5449 17.6074 33.4668C18.5253 33.3594 19.2285 32.627 19.414 31.7285L20.0097 28.8867C21.3085 28.3984 22.4999 27.7051 23.5449 26.8457L26.2988 27.7539C27.1777 28.0469 28.1542 27.8027 28.7109 27.0605C29.0527 26.6016 29.3749 26.1328 29.6679 25.6348L29.9706 25.1074C30.2441 24.6191 30.4882 24.1113 30.7128 23.5938C31.0742 22.7441 30.8007 21.7773 30.1074 21.1523L27.9394 19.2188C28.0468 18.5547 28.1054 17.8711 28.1054 17.1777C28.1054 16.4844 28.0468 15.8008 27.9394 15.1367L30.1074 13.2031L30.1269 13.2129ZM10.9374 17.1875C10.9374 15.9443 11.4313 14.752 12.3104 13.8729C13.1895 12.9939 14.3817 12.5 15.6249 12.5C16.8681 12.5 18.0604 12.9939 18.9395 13.8729C19.8186 14.752 20.3124 15.9443 20.3124 17.1875C20.3124 18.4307 19.8186 19.623 18.9395 20.5021C18.0604 21.3811 16.8681 21.875 15.6249 21.875C14.3817 21.875 13.1895 21.3811 12.3104 20.5021C11.4313 19.623 10.9374 18.4307 10.9374 17.1875ZM49.2871 48.877C49.9023 49.5703 50.8691 49.8438 51.7285 49.4824C52.246 49.2578 52.7538 49.0137 53.2421 48.7402L53.7695 48.4375C54.2578 48.1445 54.7363 47.8223 55.1953 47.4805C55.9374 46.9238 56.1816 45.9473 55.8886 45.0684L54.9804 42.3145C55.8398 41.2695 56.5429 40.0684 57.0214 38.7793L59.8632 38.1836C60.7714 37.998 61.4941 37.2949 61.6015 36.377C61.6796 35.7227 61.7187 35.0586 61.7187 34.3848C61.7187 33.7109 61.6796 33.0469 61.6015 32.3926C61.4941 31.4746 60.7617 30.7715 59.8632 30.5859L57.0214 29.9805C56.5331 28.6816 55.8398 27.4902 54.9804 26.4453L55.8886 23.6914C56.1816 22.8125 55.9374 21.8359 55.1953 21.2793C54.7363 20.9375 54.2578 20.6152 53.7695 20.3125L53.2519 20.0195C52.7636 19.7461 52.2558 19.502 51.7285 19.2773C50.8789 18.916 49.9121 19.1895 49.2871 19.8828L47.3535 22.0508C46.6894 21.9434 46.0058 21.8848 45.3124 21.8848C44.6191 21.8848 43.9355 21.9434 43.2714 22.0508L41.3378 19.8828C40.7226 19.1895 39.7558 18.916 38.8964 19.2773C38.3788 19.502 37.871 19.7461 37.373 20.0195L36.8652 20.3125C36.3671 20.6055 35.8984 20.9277 35.4394 21.2793C34.6972 21.8359 34.4531 22.8125 34.746 23.6914L35.6542 26.4453C34.7949 27.4902 34.0917 28.6914 33.6132 29.9805L30.7714 30.5664C29.8632 30.752 29.1406 31.4551 29.0331 32.373C28.955 33.0273 28.916 33.6914 28.916 34.3652C28.916 35.0391 28.955 35.7031 29.0331 36.3574C29.1406 37.2754 29.873 37.9785 30.7714 38.1641L33.6132 38.7598C34.1015 40.0586 34.7949 41.25 35.6542 42.2949L34.746 45.0488C34.4531 45.9277 34.6972 46.9043 35.4394 47.4609C35.8984 47.8027 36.3671 48.125 36.8652 48.418L37.3925 48.7207C37.8808 48.9941 38.3886 49.2383 38.9062 49.4629C39.7558 49.8242 40.7226 49.5508 41.3476 48.8574L43.2812 46.6895C43.9453 46.7969 44.6288 46.8555 45.3222 46.8555C46.0156 46.8555 46.6992 46.7969 47.3632 46.6895L49.2968 48.8574L49.2871 48.877ZM45.3124 29.6875C45.928 29.6875 46.5376 29.8087 47.1063 30.0443C47.675 30.2799 48.1917 30.6252 48.627 31.0604C49.0623 31.4957 49.4076 32.0125 49.6431 32.5812C49.8787 33.1499 49.9999 33.7594 49.9999 34.375C49.9999 34.9906 49.8787 35.6001 49.6431 36.1688C49.4076 36.7375 49.0623 37.2543 48.627 37.6896C48.1917 38.1248 47.675 38.4701 47.1063 38.7057C46.5376 38.9413 45.928 39.0625 45.3124 39.0625C44.6969 39.0625 44.0873 38.9413 43.5186 38.7057C42.9499 38.4701 42.4332 38.1248 41.9979 37.6896C41.5626 37.2543 41.2173 36.7375 40.9818 36.1688C40.7462 35.6001 40.6249 34.9906 40.6249 34.375C40.6249 33.7594 40.7462 33.1499 40.9818 32.5812C41.2173 32.0125 41.5626 31.4957 41.9979 31.0604C42.4332 30.6252 42.9499 30.2799 43.5186 30.0443C44.0873 29.8087 44.6969 29.6875 45.3124 29.6875Z" fill="#545454"/>
</svg>
