<svg width="61" height="53" viewBox="0 0 61 53" fill="none" xmlns="http://www.w3.org/2000/svg">
<path d="M19.5391 49.4391L26.2109 43.4766C23.8281 43.0625 21.6359 42.2344 19.6344 41.075L19.5391 49.4391ZM41.4609 3.56094L34.7891 9.52344C37.1719 9.93751 39.3641 10.7656 41.3656 11.925L41.4609 3.56094ZM4.09843 36.0234L13.725 35.9406C12.3906 34.2016 11.4375 32.2969 10.9609 30.2266L4.09843 36.0234ZM56.9016 16.9766L47.275 17.0594C48.5141 18.7984 49.4672 20.7031 50.0391 22.7734L56.9016 16.9766ZM4.09843 16.9766L10.9609 22.7734C11.4375 20.7031 12.3906 18.7984 13.725 17.0594L4.09843 16.9766ZM56.9016 36.0234L50.0391 30.2266C49.5625 32.2969 48.6094 34.2016 47.275 35.9406L56.9016 36.0234ZM19.5391 3.56094L19.6344 11.925C21.6359 10.8484 23.8281 10.0203 26.2109 9.52344L19.5391 3.56094ZM41.4609 49.4391L41.3656 41.075C39.3641 42.2344 37.1719 43.0625 34.7891 43.4766L41.4609 49.4391Z" fill="#FFE62E"/>
<path d="M14.1063 36.4375L10.2938 44.1391L19.1578 40.8266C17.1563 39.5844 15.4406 38.0938 14.1063 36.4375ZM46.8938 16.5625L50.7063 8.86094L41.9375 12.1734C43.8438 13.4156 45.5594 14.9062 46.8938 16.5625ZM10.8656 23.4359L1.90625 26.5L10.8656 29.5641C10.5797 28.5703 10.4844 27.5766 10.4844 26.5C10.4844 25.4234 10.5797 24.4297 10.8656 23.4359ZM50.1344 29.5641L59.0938 26.5L50.1344 23.4359C50.325 24.4297 50.5156 25.5062 50.5156 26.5C50.5156 27.5766 50.4203 28.5703 50.1344 29.5641ZM19.0625 12.2563L10.1984 8.94375L14.0109 16.6453C15.4406 14.9063 17.1562 13.4156 19.0625 12.2563ZM41.9375 40.7438L50.8016 44.0563L46.9891 36.3547C45.5594 38.0938 43.8438 39.5844 41.9375 40.7438ZM34.0266 9.44062L30.5 1.65625L26.9734 9.44062C28.1172 9.275 29.3562 9.10938 30.5 9.10938C31.6438 9.10938 32.8828 9.19219 34.0266 9.44062ZM26.9734 43.5594L30.5 51.3438L34.0266 43.5594C32.8828 43.8078 31.7391 43.8906 30.5 43.8906C29.2609 43.8906 28.1172 43.8078 26.9734 43.5594Z" fill="#FFCE31"/>
<path d="M30.5 42.2344C40.5015 42.2344 48.6094 35.1899 48.6094 26.5C48.6094 17.8101 40.5015 10.7656 30.5 10.7656C20.4985 10.7656 12.3906 17.8101 12.3906 26.5C12.3906 35.1899 20.4985 42.2344 30.5 42.2344Z" fill="#FFCE31"/>
</svg>
