<svg width="50" height="50" viewBox="0 0 50 50" fill="none" xmlns="http://www.w3.org/2000/svg">
<path d="M12.5 7.8125C7.34375 7.8125 3.125 12.0313 3.125 17.1875C3.125 20.3125 4.6875 23.125 7.03125 24.6875C2.8125 26.875 0 31.0938 0 35.9375H3.125C3.125 30.7813 7.34375 26.5625 12.5 26.5625C17.6562 26.5625 21.875 30.7813 21.875 35.9375H25C25 30.9375 29.0625 26.7188 34.0625 26.5625H34.375C38.2812 26.5625 41.5625 24.2187 42.9688 20.9375C42.9688 20.9375 42.9688 20.7813 43.125 20.7813C43.2813 20.625 43.2813 20.3125 43.2813 20.1562C43.2813 20 43.2812 20 43.4375 19.8437C43.4375 19.6875 43.5937 19.375 43.5937 19.2188C43.5937 19.0625 43.5937 18.9063 43.75 18.75C43.75 18.5937 43.75 18.4375 43.9063 18.2812V17.3438C43.9063 12.1875 39.6875 7.96875 34.5313 7.96875C29.375 7.96875 25.1563 12.1875 25.1563 17.3438C25.1563 20.4688 26.7188 23.2812 29.0625 24.8437C26.7188 25.9375 24.8438 27.8125 23.5938 30C22.3438 27.8125 20.4688 25.9375 18.125 24.8437C20.3125 23.125 21.875 20.3125 21.875 17.1875C21.875 12.0313 17.6562 7.8125 12.5 7.8125ZM12.5 10.9375C15.9375 10.9375 18.75 13.75 18.75 17.1875C18.75 20.625 15.9375 23.4375 12.5 23.4375C9.0625 23.4375 6.25 20.625 6.25 17.1875C6.25 13.75 9.0625 10.9375 12.5 10.9375ZM34.375 10.9375C37.8125 10.9375 40.625 13.75 40.625 17.1875C40.625 20.625 37.8125 23.4375 34.375 23.4375C30.9375 23.4375 28.125 20.625 28.125 17.1875C28.125 13.75 30.9375 10.9375 34.375 10.9375ZM37.6563 28.125V31.4063C36.7188 31.5625 35.7812 32.0312 35 32.5L32.6562 30.1562L30.4688 32.3438L32.8125 34.6875C32.1875 35.4688 31.875 36.4063 31.7187 37.5H28.125V40.625H31.4063C31.5625 41.5625 32.0312 42.5 32.5 43.4375L30.1562 45.7812L32.3438 47.9688L34.6875 45.625C35.4688 46.0938 36.4062 46.5625 37.3437 46.7187V50H40.4687V46.7187C41.4062 46.5625 42.3438 46.0938 43.125 45.625L45.4688 47.9688L47.6562 45.7812L45.3125 43.4375C45.9375 42.6562 46.25 41.7187 46.4063 40.625H50V37.5H46.7187C46.5625 36.5625 46.0938 35.625 45.625 34.6875L47.9688 32.3438L45.7812 30.1562L43.4375 32.5C42.6562 32.0312 41.7188 31.5625 40.7813 31.4063V28.125H37.6563ZM39.0625 34.375C41.7188 34.375 43.75 36.4062 43.75 39.0625C43.75 41.7188 41.7188 43.75 39.0625 43.75C36.4062 43.75 34.375 41.7188 34.375 39.0625C34.375 36.4062 36.4062 34.375 39.0625 34.375ZM39.0625 37.5C38.8638 37.5024 38.6681 37.5483 38.4891 37.6344C38.3031 37.7228 38.1339 37.8428 37.9891 37.9891C37.8428 38.1339 37.7228 38.3031 37.6344 38.4891C37.5483 38.6681 37.5024 38.8638 37.5 39.0625C37.5 39.2578 37.5484 39.4531 37.6344 39.6359C37.7203 39.8188 37.8422 39.9906 37.9891 40.1359C38.1344 40.2828 38.3062 40.4047 38.4891 40.4906C38.6681 40.5767 38.8638 40.6226 39.0625 40.625C39.8438 40.625 40.625 39.8438 40.625 39.0625C40.625 38.2812 39.8438 37.5 39.0625 37.5Z" fill="#545454"/>
</svg>
