<svg width="50" height="50" viewBox="0 0 50 50" fill="none" xmlns="http://www.w3.org/2000/svg">
<path d="M44.7637 41.6016C41.6758 36.2656 36.8282 32.5215 31.1954 30.9336C33.9339 29.5415 36.1238 27.2677 37.412 24.4787C38.7001 21.6897 39.0114 18.5482 38.2957 15.5607C37.5799 12.5731 35.8789 9.91371 33.4668 8.01123C31.0547 6.10875 28.0721 5.0741 25 5.0741C21.928 5.0741 18.9454 6.10875 16.5333 8.01123C14.1212 9.91371 12.4202 12.5731 11.7044 15.5607C10.9887 18.5482 11.3 21.6897 12.5881 24.4787C13.8763 27.2677 16.0662 29.5415 18.8047 30.9336C13.1719 32.5195 8.32427 36.2637 5.23638 41.6016C5.15159 41.7349 5.09466 41.8841 5.069 42.0401C5.04335 42.196 5.04951 42.3555 5.08712 42.5091C5.12472 42.6626 5.19298 42.8069 5.28781 42.9333C5.38263 43.0598 5.50205 43.1657 5.63888 43.2448C5.77572 43.3239 5.92714 43.3745 6.08403 43.3936C6.24093 43.4126 6.40006 43.3998 6.55185 43.3557C6.70364 43.3117 6.84496 43.2374 6.96729 43.1373C7.08963 43.0373 7.19046 42.9135 7.26372 42.7734C11.0157 36.291 17.6446 32.4219 25 32.4219C32.3555 32.4219 38.9844 36.291 42.7364 42.7734C42.8096 42.9135 42.9105 43.0373 43.0328 43.1373C43.1551 43.2374 43.2965 43.3117 43.4482 43.3557C43.6 43.3998 43.7592 43.4126 43.9161 43.3936C44.073 43.3745 44.2244 43.3239 44.3612 43.2448C44.4981 43.1657 44.6175 43.0598 44.7123 42.9333C44.8071 42.8069 44.8754 42.6626 44.913 42.5091C44.9506 42.3555 44.9567 42.196 44.9311 42.0401C44.9054 41.8841 44.8485 41.7349 44.7637 41.6016ZM13.6719 18.75C13.6719 16.5095 14.3363 14.3193 15.5811 12.4564C16.8258 10.5935 18.595 9.14158 20.665 8.28418C22.7349 7.42678 25.0126 7.20245 27.2101 7.63955C29.4075 8.07665 31.426 9.15555 33.0102 10.7398C34.5945 12.3241 35.6734 14.3426 36.1105 16.54C36.5476 18.7374 36.3233 21.0151 35.4659 23.0851C34.6085 25.155 33.1565 26.9242 31.2936 28.169C29.4307 29.4137 27.2405 30.0781 25 30.0781C21.9968 30.0745 19.1175 28.8799 16.9939 26.7562C14.8702 24.6326 13.6755 21.7533 13.6719 18.75Z" fill="#545454"/>
</svg>
