<svg width="50" height="50" viewBox="0 0 50 50" fill="none" xmlns="http://www.w3.org/2000/svg">
<path d="M6.25 43.75V39.5833C6.25 37.3732 7.12797 35.2536 8.69078 33.6908C10.2536 32.128 12.3732 31.25 14.5833 31.25H22.9167C24.9167 31.25 26.75 31.9542 28.1875 33.1271M33.3333 6.52083C35.1259 6.97979 36.7147 8.02229 37.8492 9.48398C38.9838 10.9457 39.5997 12.7434 39.5997 14.5937C39.5997 16.4441 38.9838 18.2418 37.8492 19.7035C36.7147 21.1652 35.1259 22.2077 33.3333 22.6667M33.3333 39.5833H45.8333M39.5833 33.3333V45.8333M10.4167 14.5833C10.4167 16.7935 11.2946 18.9131 12.8574 20.4759C14.4202 22.0387 16.5399 22.9167 18.75 22.9167C20.9601 22.9167 23.0798 22.0387 24.6426 20.4759C26.2054 18.9131 27.0833 16.7935 27.0833 14.5833C27.0833 12.3732 26.2054 10.2536 24.6426 8.69078C23.0798 7.12797 20.9601 6.25 18.75 6.25C16.5399 6.25 14.4202 7.12797 12.8574 8.69078C11.2946 10.2536 10.4167 12.3732 10.4167 14.5833Z" stroke="#545454" stroke-width="4.16667" stroke-linecap="round" stroke-linejoin="round"/>
</svg>
