<svg width="50" height="50" viewBox="0 0 50 50" fill="none" xmlns="http://www.w3.org/2000/svg">
<g clip-path="url(#clip0_116_34)">
<path d="M25 1.66678L26.0833 0.40011C25.7814 0.141894 25.3973 0 25 0C24.6027 0 24.2186 0.141894 23.9167 0.40011L25 1.66678ZM1.66667 21.6668L0.583333 20.4001L0 20.9001V21.6668H1.66667ZM18.3333 48.3334V50.0001C18.7754 50.0001 19.1993 49.8245 19.5118 49.512C19.8244 49.1994 20 48.7755 20 48.3334H18.3333ZM31.6667 48.3334H30C30 48.7755 30.1756 49.1994 30.4882 49.512C30.8007 49.8245 31.2246 50.0001 31.6667 50.0001V48.3334ZM48.3333 21.6668H50V20.9001L49.4167 20.4001L48.3333 21.6668ZM5 50.0001H18.3333V46.6668H5V50.0001ZM49.4167 20.4001L26.0833 0.40011L23.9167 2.93344L47.25 22.9334L49.4167 20.4001ZM23.9167 0.40011L0.583333 20.4001L2.75 22.9334L26.0833 2.93344L23.9167 0.40011ZM20 48.3334V38.3334H16.6667V48.3334H20ZM30 38.3334V48.3334H33.3333V38.3334H30ZM31.6667 50.0001H45V46.6668H31.6667V50.0001ZM50 45.0001V21.6668H46.6667V45.0001H50ZM0 21.6668V45.0001H3.33333V21.6668H0ZM25 33.3334C26.3261 33.3334 27.5979 33.8602 28.5355 34.7979C29.4732 35.7356 30 37.0074 30 38.3334H33.3333C33.3333 36.1233 32.4554 34.0037 30.8926 32.4409C29.3298 30.8781 27.2101 30.0001 25 30.0001V33.3334ZM25 30.0001C22.7899 30.0001 20.6702 30.8781 19.1074 32.4409C17.5446 34.0037 16.6667 36.1233 16.6667 38.3334H20C20 37.0074 20.5268 35.7356 21.4645 34.7979C22.4021 33.8602 23.6739 33.3334 25 33.3334V30.0001ZM45 50.0001C46.3261 50.0001 47.5979 49.4733 48.5355 48.5356C49.4732 47.598 50 46.3262 50 45.0001H46.6667C46.6667 45.4421 46.4911 45.8661 46.1785 46.1786C45.866 46.4912 45.442 46.6668 45 46.6668V50.0001ZM5 46.6668C4.55797 46.6668 4.13405 46.4912 3.82149 46.1786C3.50893 45.8661 3.33333 45.4421 3.33333 45.0001H0C0 46.3262 0.526784 47.598 1.46447 48.5356C2.40215 49.4733 3.67392 50.0001 5 50.0001V46.6668Z" fill="#545454"/>
</g>
<defs>
<clipPath id="clip0_116_34">
<rect width="50" height="50" fill="white"/>
</clipPath>
</defs>
</svg>
